<!-- The SVG Design by Ala GARBAA - AlaGarbaa.com --><svg xmlns="http://www.w3.org/2000/svg" viewBox="0 0 62.35 62.65"><path d="M9.72,36.23a1.34,1.34,0,0,1,.89.24,13.31,13.31,0,0,0,2,.88,14.69,14.69,0,0,1,1.63.83,6.3,6.3,0,0,0,.9.45c.64.26,1.23.62,1.86.9a1.52,1.52,0,0,1,.87,1.16c.4,1.85.91,3.68,1.36,5.52.12.52.27,1,.39,1.55a1.28,1.28,0,0,1-.21,1.15c-.48.61-.95,1.22-1.45,1.81-.67.79-1.3,1.62-2,2.39a12.44,12.44,0,0,0-1.09,1.42,1.42,1.42,0,0,1-1.7.57A8.83,8.83,0,0,0,11,54.89c-1.55,0-3.09,0-4.63,0a1.63,1.63,0,0,1-1.42-.65c-.6-.78-1.34-1.46-1.88-2.27a35.45,35.45,0,0,0-2.28-2.9,3.22,3.22,0,0,1-.65-.81A1.38,1.38,0,0,1,0,47.37C.57,45.24,1.15,43.13,1.56,41a4.07,4.07,0,0,1,.3-1.1,1,1,0,0,1,.54-.5c1.17-.5,2.32-1.06,3.47-1.61.58-.27,1.23-.37,1.79-.7a10.77,10.77,0,0,1,1.39-.72A1.29,1.29,0,0,1,9.72,36.23Zm.59,3.11v-.52c0-.33-.16-.51-.4-.5s-.41.2-.42.52a1.12,1.12,0,0,0,0,.32,2.62,2.62,0,0,1,.06,1,.42.42,0,0,1-.42.47A3.22,3.22,0,0,0,7.78,41a18.68,18.68,0,0,0-1.54,1.1.41.41,0,0,1-.4.09,2.65,2.65,0,0,1-1.15-.82c-.09-.09-.17-.18-.3-.13a.33.33,0,0,0-.24.32c0,.25.14.37.31.49s.65.29.87.57.27.42.14.63a4.71,4.71,0,0,0-.72,3c0,.34-.18.48-.46.57a3.58,3.58,0,0,1-1,.12.46.46,0,0,0-.46.25.34.34,0,0,0,.06.39.48.48,0,0,0,.57.12,3,3,0,0,1,.88-.25c.21,0,.51-.13.64.18a6.22,6.22,0,0,0,2,2.43A.6.6,0,0,1,7.2,51a2.62,2.62,0,0,0-.22.25c-.15.24-.41.42-.4.76s.06.4.3.45a.38.38,0,0,0,.47-.29,7.72,7.72,0,0,1,.32-1c.09-.23.23-.46.53-.38A6.51,6.51,0,0,0,9.35,51a5.15,5.15,0,0,0,2.14-.11.39.39,0,0,1,.36,0,1.15,1.15,0,0,1,.54.75,4,4,0,0,0,.19.55.41.41,0,0,0,.42.26.39.39,0,0,0,.35-.3.53.53,0,0,0-.16-.53,3,3,0,0,1-.44-.69.76.76,0,0,1,.14-.91,4.59,4.59,0,0,0,2-2.42c.05-.16.16-.19.31-.23a2.09,2.09,0,0,1,1.26.16.8.8,0,0,0,.48,0,.37.37,0,0,0,.31-.37c0-.19-.09-.26-.25-.33a5.6,5.6,0,0,0-1-.2c-.71-.18-.81-.26-.8-1a5.18,5.18,0,0,0-.65-2.67.63.63,0,0,1,.26-1c.3-.19.58-.39.85-.6a.31.31,0,0,0,.14-.4.4.4,0,0,0-.39-.25.53.53,0,0,0-.48.23,3,3,0,0,1-.62.62.5.5,0,0,1-.75,0,4.44,4.44,0,0,0-2.83-1.34.36.36,0,0,1-.3-.22A1.71,1.71,0,0,1,10.31,39.34Z" fill="#336de5"/><path d="M54.58,53.33a7.73,7.73,0,1,1,7.77-7.43A7.7,7.7,0,0,1,54.58,53.33Zm3.78-4.44a1.86,1.86,0,0,0-.14-.55c-.47-1.1-.91-2.22-1.39-3.32-.54-1.25-1-2.56-1.62-3.78a.46.46,0,0,0-.79-.16,1.09,1.09,0,0,0-.29.44c-1.06,2.53-2.14,5.07-3.21,7.61-.16.39-.17.39.24.39.16,0,.33,0,.49,0a.4.4,0,0,0,.44-.3q.6-1.42,1.14-2.88c.1-.28.19-.28.4-.11.92.75,1.85,1.49,2.78,2.23a10.93,10.93,0,0,0,1.1.83A.5.5,0,0,0,58.36,48.89Z" fill="#010101"/><path d="M30.61,17H25.88a.82.82,0,0,1-.86-.55c-.16-.36-.31-.72-.45-1.09a.79.79,0,0,1,.37-1.07,28.5,28.5,0,0,1,2.54-1.67c.43-.25.43-.26.24-.72a5.12,5.12,0,0,1-.35-1,.42.42,0,0,0-.33-.36,2.65,2.65,0,0,1-1.16-3.88A.59.59,0,0,0,26,6.15a4.28,4.28,0,0,1,0-1.85,1.48,1.48,0,0,1,.59-.95A.62.62,0,0,0,26.79,3a2.27,2.27,0,0,1,1.14-1.36A15.29,15.29,0,0,1,30.17.51,8.38,8.38,0,0,1,35.52.38,5.21,5.21,0,0,1,39.07,4.1a10,10,0,0,1,.31,4.49,9,9,0,0,1-1.2,3.3c-.17.27-.13.38.12.54s.69.46,1,.69a1.15,1.15,0,0,1,.51,1.31c-.15.67-.3,1.34-.46,2a.57.57,0,0,1-.58.48L36.87,17C34.78,17,32.69,17,30.61,17Zm-1-15.3-.07.06A5,5,0,0,0,27.78,3c.34,0,.57-.14.82-.12A.39.39,0,0,0,29,2.68c.21-.29.4-.59.6-.88l.07-.07,0,0Zm7.56,5.5a.94.94,0,0,1-.06-.15c-.13-.4,0-.61.47-.59.21,0,.17-.09.14-.22a3,3,0,0,1-.14-1.14,4.65,4.65,0,0,0,1,1.34,6.44,6.44,0,0,0-.15-1.6A1.33,1.33,0,0,0,36.8,3.71c-.07,0-.15.09-.21,0s0-.17,0-.25a.79.79,0,0,1,.52-.42L37.56,3a.57.57,0,0,0-.18-.31,4.72,4.72,0,0,0-4.6-1.59A4.43,4.43,0,0,0,29.6,3.26a.39.39,0,0,0-.07.34,1.72,1.72,0,0,1-.09,1.18,2.87,2.87,0,0,0-.17,1.76,4.85,4.85,0,0,1,.16,1,.48.48,0,0,1-.36.54c-.24.09-.47.16-.7.26a.69.69,0,0,1-.49,0c-.16,0-.4-.16-.48-.09s0,.35,0,.53l-.07.07a1.35,1.35,0,0,1-.57-1.08.51.51,0,0,1,.85-.42c.09.06.17.13.28.22,0-.27,0-.55-.21-.65a.73.73,0,0,0-.74.13.85.85,0,0,0-.34.39,1.88,1.88,0,0,0,.52,2.2c.42.32.52.33,1,.05.25-.15.41.06.56.2a.21.21,0,0,1-.05.38c-.35.14-.28.38-.21.64s.13.49.22.73A1.92,1.92,0,0,0,29.86,13c.31.08.61.15.92.21a.66.66,0,0,0,.48-.05c.16-.09.25-.18.06-.34a6.62,6.62,0,0,1-.53-.53,1.88,1.88,0,0,1-.52-1.45,4.38,4.38,0,0,0,.56.86,4.64,4.64,0,0,0,2.82,1.38,3.58,3.58,0,0,0,3.59-1.48,7.43,7.43,0,0,0,1.17-2.78,6.55,6.55,0,0,0,.17-2,2.43,2.43,0,0,1-1.34.44Zm-6.34,9c.09,0,.24,0,.21-.1s0-.45-.32-.55a7.36,7.36,0,0,1-1.09-.45,3.73,3.73,0,0,1-1.49-1.56c-.14-.26-.29-.25-.51-.1l-2.16,1.47a.44.44,0,0,0-.15.12,1.82,1.82,0,0,0,.57,1.06l2,.07C28.86,16.18,29.84,16.12,30.83,16.2ZM28.34,6.34c0-.17,0-.3.06-.42.16-.62.34-1.24.49-1.86.08-.31,0-.41-.32-.36s-.68.15-1,.18a.75.75,0,0,0-.72.68,3.15,3.15,0,0,0,0,1.26c0,.1.07.17.18.14A1.45,1.45,0,0,1,28.34,6.34Zm3.77,7.45c-.2,0-.48,0-.45.23a9.38,9.38,0,0,0,.12,1.59.48.48,0,0,0,.34.36,1.69,1.69,0,0,0,1.47-.35c.1-.07.08-.14,0-.22a.79.79,0,0,1,0-.67.35.35,0,0,0-.13-.46A3.77,3.77,0,0,0,32.11,13.79Zm4.51,1.46h.23c.44,0,.53-.09.51-.52a5.18,5.18,0,0,0-.09-.78.4.4,0,0,0-.3-.36c-.4-.08-.68.18-1,.39s0,.33,0,.5a1.84,1.84,0,0,1,0,.33c0,.44,0,.44.45.44Zm.8.84h.91a.25.25,0,0,0,.28-.17A7.84,7.84,0,0,0,39,14.21c0-.09,0-.19-.07-.25-.25-.2-.5-.41-.77-.6-.08-.06-.23-.07-.18.12a5.57,5.57,0,0,0,.19.83,1.25,1.25,0,0,1-.2,1.31C37.83,15.82,37.6,15.91,37.42,16.09Zm-2.59-.84a.4.4,0,0,0,.36-.4.41.41,0,0,0-.42-.41.38.38,0,0,0-.38.4A.4.4,0,0,0,34.83,15.25Z" fill="#29343a"/><path d="M23,56.64c-.06-.21-.22-.21-.39-.21h-3c.59-.27,1.37-.27,1.56-1.12a3.11,3.11,0,0,0,1.39.7c.3.08.35,0,.35-.27,0-.48,0-1,0-1.44,0-.26.11-.35.35-.34h1.61c.23,0,.32-.07.31-.32,0-.68,0-1.36,0-2,0-.28.09-.35.36-.35.63,0,1.27,0,1.9,0,.25,0,.34-.06.34-.32,0-.64,0-1.27,0-1.91,0-.26.08-.36.35-.35h4.46c.27,0,.36-.07.36-.35,0-.63,0-1.27,0-1.9,0-.26.09-.35.35-.34h2.42c.28,0,.36.09.36.36,0,1.47,0,3,0,4.42,0,.32.11.39.4.38.65,0,1.31,0,2,0,.26,0,.35.08.34.34,0,.69,0,1.37,0,2.06,0,.19,0,.29.24.29a8.87,8.87,0,0,0,3.35-.51c.24-.1.35-.23.29-.49.51.44.49.57-.09.85l-.15.07a7.44,7.44,0,0,1-3,.6H24.56a1,1,0,0,0-.39,0c-.72-.15-1,.08-1,.79,0,.18,0,.35,0,.53s.12.37.4.3a3.77,3.77,0,0,1,.58,0,.2.2,0,0,0,.25.11,4.13,4.13,0,0,0,.79-.29.38.38,0,0,1,.55,0,1.21,1.21,0,0,0,.58.28,7.76,7.76,0,0,0,2.15.12,4.5,4.5,0,0,0,2.44-.7.21.21,0,0,1,.27,0,2.89,2.89,0,0,0,1.09.52A4.09,4.09,0,0,0,35.38,56a1,1,0,0,1,1.06-.1,6.82,6.82,0,0,0,3.5.45,2.17,2.17,0,0,0,1.23-.48.91.91,0,0,1,1,.07,2,2,0,0,0,.37.14c.22.1.35,0,.44-.19a10.06,10.06,0,0,0,.73-1.56c.08-.25.22-.27.42-.23a2.53,2.53,0,0,0,1.13,0,3.49,3.49,0,0,0,2-1.25c.12-.15.18-.29,0-.39a3.35,3.35,0,0,0-1.82-.25,4.18,4.18,0,0,0-1.24.35A3.37,3.37,0,0,0,43,49.72c-.2-.18-.3-.15-.41.08a3.34,3.34,0,0,0-.33,1.39A4.46,4.46,0,0,0,42.6,53a1.64,1.64,0,0,1-.47-1.1A3.36,3.36,0,0,1,42.87,49c.11-.12.15-.1.26,0a4.34,4.34,0,0,1,1.68,2.43c0,.22.16.25.38.2a4,4,0,0,1,2.77.33c.25.13.32.25.18.54a3.35,3.35,0,0,1-2.72,1.79,1.87,1.87,0,0,1-.88,0,.21.21,0,0,0-.28.15,9,9,0,0,1-.64,1.28c-.1.17,0,.2.12.22a3.09,3.09,0,0,0,2.49-.8c-.06.76.06.93.79,1.16a2.25,2.25,0,0,1,.72.26H43.45a.54.54,0,0,0-.53.29A12.14,12.14,0,0,1,35,62.21a14.45,14.45,0,0,1-5.82.25,7.87,7.87,0,0,1-5-3s-.05-.09-.08-.14h1.74l.06-.09-.2-.11A4.66,4.66,0,0,1,24.4,57c0-.14-.07-.26.13-.29A4.25,4.25,0,0,0,26,59.1a.74.74,0,0,0,.47.2,7,7,0,0,0,1.21,0A8.78,8.78,0,0,0,29.06,59a.19.19,0,0,1,.26.12c.06.14-.05.15-.15.19l-.19.12-1.81.32c-.76,0-1.51,0-2.31,0A2.34,2.34,0,0,0,25,60a8.56,8.56,0,0,0,3.27,1.81,13,13,0,0,0,3.4.4,11.34,11.34,0,0,0,2.4-.21,14,14,0,0,0,4.15-1.46,10.88,10.88,0,0,0,2.33-1.72,7.54,7.54,0,0,0,1.62-1.94c.1-.19.12-.33-.17-.33-.8,0-1.59,0-2.39,0-4.35,0-8.7,0-13,0-1.08,0-2.16,0-3.24,0A.59.59,0,0,0,23,56.64Zm10.21-5.33c0,.23.11.27.3.27h1.64c.26,0,.35-.11.35-.36,0-.53,0-1.06,0-1.6,0-.27-.11-.34-.35-.34H33.63c-.27,0-.41.1-.38.39A11.21,11.21,0,0,0,33.23,51.31Zm-5.72,2.62c.13,0,.14-.08.14-.18V52c0-.19-.11-.25-.27-.25H25.62c-.15,0-.22.06-.22.21v1.83c0,.1,0,.23.13.22s.07-.13.07-.21c0-.46,0-.91,0-1.37,0-.07,0-.18.07-.19s.12.1.12.19c0,.47,0,.94,0,1.4,0,.16,0,.22.15.21h1.41c.08,0,.15,0,.15-.11Zm.66-.26c0-.44,0-.89,0-1.33,0-.08-.07-.23.09-.23s.1.13.1.21v1.31a.38.38,0,0,1,0,.19s-.21,0-.14.13.15.11.25.11h1.68c.21,0,.33-.08.34-.3,0-.57,0-1.14,0-1.7,0-.19-.09-.29-.28-.29H28.34c-.16,0-.28.07-.28.24A5.78,5.78,0,0,0,28.17,53.67Zm2.17-3.23c0-.28,0-.57,0-.85s-.05-.27-.23-.28a13.51,13.51,0,0,0-1.8,0c-.16,0-.23.08-.23.25,0,.58,0,1.16,0,1.73,0,.19.07.29.27.29h1.73c.19,0,.26-.08.25-.26S30.34,50.73,30.34,50.44Zm5.05-2.56c0-.29,0-.57,0-.86s-.09-.31-.31-.3H33.48c-.25,0-.35.07-.34.33,0,.54,0,1.08,0,1.61,0,.28.1.34.36.35.57,0,1.13-.08,1.7,0,.16,0,.19-.09.19-.23Zm-2.25,5c0,.29,0,.59,0,.88s.08.29.29.28c.56,0,1.11,0,1.67,0,.2,0,.3-.06.3-.28q0-.87,0-1.74c0-.2-.09-.27-.28-.27H33.45c-.22,0-.32.08-.31.31S33.14,52.62,33.14,52.9Zm2.78,1.15v-1.5c0-.07,0-.17.07-.18s.11.1.11.18a10.92,10.92,0,0,1,0,1.28c0,.24.07.23.24.24a5.17,5.17,0,0,1,1.47.08c.22.06.29,0,.29-.23q0-.87,0-1.74c0-.2-.06-.3-.28-.29H36c-.21,0-.26.08-.26.27,0,.53,0,1.07,0,1.6C35.79,53.86,35.76,54,35.92,54.05Zm-3-3.55v-.89c0-.15,0-.3-.22-.3-.58,0-1.16,0-1.74,0-.2,0-.31.14-.1.31a.34.34,0,0,1,.09.3V51.1c0,.09,0,.2-.08.26s-.13,0-.1.13.11.08.19.08h1.73c.17,0,.24-.06.23-.23S32.94,50.78,32.94,50.5Zm-2.41,2.36c0,.3,0,.59,0,.89s0,.31.24.31h1.6c.14,0,.16,0,.15-.19,0-.49,0-1,0-1.47a.21.21,0,0,1,.13-.2c.12-.08.07-.22,0-.33s-.12-.1-.21-.1H30.74c-.15,0-.21,0-.21.21S30.53,52.57,30.53,52.86Z" fill="#3b5259"/><path d="M45.94,32v3.34c0,.44,0,.47.46.47h3.34A6.38,6.38,0,0,1,48.51,37a9.09,9.09,0,0,1-3.72,2,9,9,0,0,1-8.26-2,.81.81,0,0,1-.3-.65c0-1.12,0-2.23,0-3.35,0-.31.12-.43.42-.43h3a.5.5,0,0,1,.36.13,3.75,3.75,0,0,0,5,0C45.29,32.44,45.62,32.23,45.94,32Z" fill="#fd900f"/><path d="M21.42,32a4,4,0,0,1,.34.4,3.44,3.44,0,0,0,2.67,1.38,3.68,3.68,0,0,0,2.86-.89.7.7,0,0,1,.48-.16h2.89c.29,0,.41.11.41.4q0,1.72,0,3.45a.67.67,0,0,1-.24.51,8.25,8.25,0,0,1-4.65,2.2,9,9,0,0,1-7.76-2.6,1.37,1.37,0,0,1-.19-.22c-.13-.16-.43-.32-.35-.49s.4,0,.61,0h2.3c.57,0,.57,0,.57-.59v-3C21.36,32.18,21.32,32.07,21.42,32Z" fill="#5fced9"/><path d="M28.58,26.29c-.32-.25-.59-.43-.83-.65a7.68,7.68,0,0,0-1.33-.95,3.11,3.11,0,0,0-3-.17,2.41,2.41,0,0,1-1.21.23q-1.46-.11-2.91-.12c-.27,0-.37-.11-.36-.37,0-1,.05-2,.09-2.92a.79.79,0,0,1,.33-.61,9.58,9.58,0,0,1,4.29-1.85,7.9,7.9,0,0,1,6.58,1.75,21.7,21.7,0,0,1,2,2.05c0,.05.12.09.08.17s-.13,0-.21,0H29c-.4,0-.43,0-.43.43C28.58,24.28,28.58,25.24,28.58,26.29Z" fill="#1789d7"/><path d="M38.71,26.28V23.52c0-.5,0-.53-.54-.53H34.9a14.56,14.56,0,0,1,2.8-2.65,8.32,8.32,0,0,1,4.81-1.57,9.7,9.7,0,0,1,5.77,2.05.63.63,0,0,1,.24.48,26.26,26.26,0,0,0,.1,2.94c0,.2-.06.3-.28.31-1.15,0-2.29.06-3.44.1a1,1,0,0,1-.41-.09,4.11,4.11,0,0,0-4.7.74C39.46,25.61,39.12,25.91,38.71,26.28Z" fill="#c64023"/><path d="M21.46,26c0,.13-.14.18-.22.26a3.74,3.74,0,0,0-1.09,4,5.33,5.33,0,0,1,.19,1.26v2.72c0,.45-.07.52-.54.52-.93,0-1.86,0-2.79,0a.79.79,0,0,1-.69-.35,8.74,8.74,0,0,1-1.77-6.18,9.24,9.24,0,0,1,2.85-5.81c.05,0,.08-.12.16-.09s.09.13.09.22a22,22,0,0,1-.07,2.81c-.06.41,0,.49.42.5l3.27.11C21.33,26,21.41,26,21.46,26Z" fill="#2ab0e4"/><path d="M46,26.12a4.1,4.1,0,0,1,.84,0L49.36,26c.3,0,.4-.13.39-.42,0-.92-.13-1.85-.11-2.78V22.4a4.79,4.79,0,0,1,.92.86A8.86,8.86,0,0,1,51.37,34c-.69,1-.48.86-1.58.87-.78,0-1.55,0-2.33,0-.27,0-.39-.07-.39-.37,0-1.14,0-2.27,0-3.41a4.23,4.23,0,0,1,.21-.92A3.85,3.85,0,0,0,46.86,27,5.74,5.74,0,0,0,46,26.12Z" fill="#e47329"/><path d="M33.78,33.35c-.52.54-.89,1.18-1.35,1.76a4.39,4.39,0,0,1-.58.71c-.12-.08-.07-.19-.07-.27v-3c0-.4-.06-.45-.45-.45H27.91a6,6,0,0,1,.64-.86c.61-.75,1.22-1.51,1.82-2.27.08-.09.2-.18.16-.33h0s.07,0,.07-.07h0c.06,0,.07-.05.07-.1l.66-.86c.08,0,.12,0,.13-.09h0a.11.11,0,0,0,.08-.13h0s.07,0,.07-.07h0a.07.07,0,0,0,.06-.08h0l.07-.07h0a.12.12,0,0,0,.07-.13h0c.09,0,.12-.06.14-.13h0c.06,0,.09-.07.07-.13h0a.06.06,0,0,0,.07-.07h0c.11,0,.14-.09.13-.19h0a.06.06,0,0,0,.07-.07h0c.08,0,.1,0,.09-.11l.12-.18c.15,0,.19-.1.19-.24h0a.24.24,0,0,0,.2-.27h0c.05,0,.07,0,.06-.07h0c.09,0,.12-.06.13-.14h0a.11.11,0,0,0,.07-.14h0a.23.23,0,0,0,.2-.27h0c.06,0,.08,0,.07-.07h0c.17,0,.19-.14.19-.27l.2-.31a.73.73,0,0,1,.5-.21c1,0,1.92-.09,2.88-.07.48,0,.47,0,.45.49,0,.69,0,1.37,0,2.06a2.9,2.9,0,0,1-.5,2.1,2.25,2.25,0,0,0-.44.48c-.7,1-1.4,1.95-2.09,2.93A7.07,7.07,0,0,0,33.78,33.35Z" fill="#5fd8be"/><path d="M23,56.64a.59.59,0,0,1,.34-.1c1.08,0,2.16,0,3.24,0,4.35,0,8.7,0,13,0,.8,0,1.59,0,2.39,0,.29,0,.27.14.17.33a7.54,7.54,0,0,1-1.62,1.94,10.88,10.88,0,0,1-2.33,1.72A14,14,0,0,1,34.11,62a11.34,11.34,0,0,1-2.4.21c-.05-.16-.21-.18-.33-.25a4.78,4.78,0,0,1-1.78-1.53,5.36,5.36,0,0,0,.68.06,14.16,14.16,0,0,0,2.83-.37A18.47,18.47,0,0,0,37,58.67a8.87,8.87,0,0,0,1.75-1.06.78.78,0,0,1,.56-.21c.13.09.31.07.42.2l.06.06c0,.06,0,.11.08.11l0,0c0-.07-.05-.07-.1-.08l-.07-.07c0-.3-.21-.25-.39-.26s-.06-.16.06-.21a.26.26,0,0,0,.16-.32c0-.11-.17-.06-.26-.06H24.53c-.2,0-.18.15-.13.29a4.66,4.66,0,0,0,1.35,2.13l.2.11-.06.09H24.16l-.07-.08A5.54,5.54,0,0,1,23,56.64Z" fill="#1286ae"/><path d="M33.74,24.43l-.2.31a.38.38,0,0,0-.19.27h0l-.07.07h0a.37.37,0,0,0-.2.27h0a.11.11,0,0,0-.07.14h0c-.09,0-.12.06-.13.14h0l-.06.07h0a.45.45,0,0,0-.2.27h0a.39.39,0,0,0-.19.23l-.12.18a.1.1,0,0,0-.09.11h0l-.07.07h0a.22.22,0,0,0-.13.19h0l-.07.07h0a.13.13,0,0,0-.07.13h0c-.09,0-.12.06-.14.13h0a.11.11,0,0,0-.07.13h0c-.05,0-.07,0-.07.07h0a.07.07,0,0,0-.06.08h0l-.07.07h0a.11.11,0,0,0-.08.13h0c-.08,0-.1,0-.13.09l-.66.86-.07.1h0l-.07.07h0c-.19,0-.21-.16-.3-.26a2.34,2.34,0,0,1-.63-1.88c.06-.79,0-1.59,0-2.39,0-.28.1-.41.39-.38a22.49,22.49,0,0,0,2.72.11c.31,0,.57,0,.74.33A1.48,1.48,0,0,0,33.74,24.43Z" fill="#fdca50"/><path d="M33.78,33.35a7.07,7.07,0,0,1,.76-1.14c.69-1,1.39-2,2.09-2.93a2.25,2.25,0,0,1,.44-.48c.66.83,1.29,1.68,2,2.47.16.18.1.26-.1.28s-.57,0-.86,0H35.85c-.52,0-.53,0-.54.53,0,.9,0,1.81-.07,2.71a4.5,4.5,0,0,1-.06.53A20.56,20.56,0,0,0,33.78,33.35Z" fill="#fdca50"/><path d="M24.09,59.3l.07.08Z" fill="#3b5259"/><path d="M37.24,7.28a2.34,2.34,0,0,0,1.34-.43,6.55,6.55,0,0,1-.17,2,7.43,7.43,0,0,1-1.17,2.78,3.58,3.58,0,0,1-3.59,1.48,4.64,4.64,0,0,1-2.82-1.38,4.38,4.38,0,0,1-.56-.86,1.88,1.88,0,0,0,.52,1.45,6.62,6.62,0,0,0,.53.53c.19.16.1.25-.06.34a.66.66,0,0,1-.48.05c-.31-.06-.61-.13-.92-.21a1.92,1.92,0,0,1-1.29-1.36c-.09-.24-.15-.48-.22-.73s-.14-.5.21-.64a.21.21,0,0,0,.05-.38c-.15-.14-.31-.35-.56-.2-.46.28-.56.27-1-.05a1.88,1.88,0,0,1-.52-2.2.85.85,0,0,1,.34-.39A.73.73,0,0,1,27.63,7c.21.1.22.38.21.65-.11-.09-.19-.16-.28-.22a.51.51,0,0,0-.85.42,1.35,1.35,0,0,0,.57,1.08l.07-.07c0-.18-.08-.43,0-.53s.32.05.48.09a.69.69,0,0,0,.49,0c.23-.1.46-.17.7-.26a.48.48,0,0,0,.36-.54,4.85,4.85,0,0,0-.16-1,2.87,2.87,0,0,1,.17-1.76,1.72,1.72,0,0,0,.09-1.18.39.39,0,0,1,.07-.34,4.43,4.43,0,0,1,3.18-2.21,4.72,4.72,0,0,1,4.6,1.59.57.57,0,0,1,.18.31l-.43.11a.79.79,0,0,0-.52.42c0,.08-.09.17,0,.25s.14,0,.21,0a1.33,1.33,0,0,1,1.63,1.15,6.44,6.44,0,0,1,.15,1.6,4.65,4.65,0,0,1-1-1.34,3,3,0,0,0,.14,1.14c0,.13.07.24-.14.22-.43,0-.6.19-.47.59a.94.94,0,0,0,.06.15l0,0a2.2,2.2,0,0,1-.67-.75A6.36,6.36,0,0,1,36,5.24c0-.07,0-.19-.15-.17s-.08.11-.09.19a.75.75,0,0,0,0,.16c-.12.92-.17,1.82.79,2.4a.38.38,0,0,1,.11.11c.47.52.43.64-.24.81l-.19,0a1.57,1.57,0,0,1-1.46-.25c-.07-.06-.14-.17-.24-.1a.34.34,0,0,0-.11.27,1.15,1.15,0,0,0,.61,1A2.58,2.58,0,0,0,37.57,9a.89.89,0,0,0,.12-.95,3.57,3.57,0,0,0-.5-.72Zm.57,2.78a4.11,4.11,0,0,0-1.05,0c-.47.09-.51.1-.45.58,0,.17.07.25.26.22a2.16,2.16,0,0,0,1-.33.54.54,0,0,0,.29-.53h0v0Zm-3.23,2.21a3.64,3.64,0,0,0,.74,0,.87.87,0,0,0,.63-.56c.07-.17.06-.26-.16-.25a13.26,13.26,0,0,1-1.41,0c-.57,0-1.23.11-1.61-.53,0,0-.08,0-.11,0a.31.31,0,0,0,0,.15,1.64,1.64,0,0,0,2,1.27Zm-4-7.47c0,.16,0,.35.18.39s.27-.13.32-.27a1.56,1.56,0,0,1,1.66-1c.26,0,.34-.12.33-.36s-.67-.74-.9-.53a2.5,2.5,0,0,1-.6.28A1.94,1.94,0,0,0,30.53,4.8ZM33.2,7.21a1.71,1.71,0,0,0,.88-.16.51.51,0,0,0,.27-.69,9.32,9.32,0,0,1-.57-1.14c0-.06,0-.17-.14-.14s-.09.1-.09.18a3.22,3.22,0,0,0,.06,1c.08.22,0,.25-.2.24a2.65,2.65,0,0,1-.74-.11c-.24-.07-.36,0-.45.26s0,.32.18.42A1.44,1.44,0,0,0,33.2,7.21Zm.24,3c.05.14.16.18.24.24a3.48,3.48,0,0,0,1.59.55c.65.06.53.06.54-.54,0-.13-.06-.17-.18-.16C34.91,10.33,34.18,10.27,33.44,10.22Z" fill="#fbdcaf"/><path d="M30.83,16.2c-1-.08-2,0-2.95,0l-2-.07A1.82,1.82,0,0,1,25.32,15a.44.44,0,0,1,.15-.12l2.16-1.47c.22-.15.37-.16.51.1a3.73,3.73,0,0,0,1.49,1.56,7.36,7.36,0,0,0,1.09.45c.28.1.29.33.32.55S30.92,16.21,30.83,16.2Z" fill="#3b5259"/><path d="M28.34,6.34A1.45,1.45,0,0,0,27,6c-.11,0-.15,0-.18-.14a3.15,3.15,0,0,1,0-1.26.75.75,0,0,1,.72-.68c.35,0,.69-.12,1-.18s.4,0,.32.36c-.15.62-.33,1.24-.49,1.86C28.37,6,28.37,6.17,28.34,6.34Z" fill="#3b5259"/><path d="M32.11,13.79a3.77,3.77,0,0,1,1.35.48.35.35,0,0,1,.13.46.79.79,0,0,0,0,.67c0,.08.06.15,0,.22a1.69,1.69,0,0,1-1.47.35.48.48,0,0,1-.34-.36A9.38,9.38,0,0,1,31.66,14C31.63,13.76,31.91,13.82,32.11,13.79Z" fill="#c64023"/><path d="M36.62,15.25h-.13c-.45,0-.45,0-.45-.44a1.84,1.84,0,0,0,0-.33c0-.17-.22-.35,0-.5s.57-.47,1-.39a.4.4,0,0,1,.3.36,5.18,5.18,0,0,1,.09.78c0,.43-.07.51-.51.52Z" fill="#c64023"/><path d="M37.42,16.09c.18-.18.41-.27.55-.47a1.25,1.25,0,0,0,.2-1.31,5.57,5.57,0,0,1-.19-.83c0-.19.1-.18.18-.12.27.19.52.4.77.6.08.06.07.16.07.25a7.84,7.84,0,0,1-.39,1.71.25.25,0,0,1-.28.17Z" fill="#3b5259"/><path d="M29.55,1.8c-.2.29-.39.59-.6.88a.39.39,0,0,1-.35.16c-.25,0-.48.12-.82.12a5,5,0,0,1,1.76-1.18Z" fill="#3b5259"/><path d="M34.83,15.25a.4.4,0,0,1-.44-.41.38.38,0,0,1,.38-.4.41.41,0,0,1,.42.41A.4.4,0,0,1,34.83,15.25Z" fill="#c64023"/><path d="M37.17,7.22l.07.06-.05,0-.06-.07Z" fill="#fbdcaf"/><path d="M29.62,1.73l-.07.07v0l.07-.06Z" fill="#3b5259"/><path d="M29.61,1.72l0,0,0,0Z" fill="#3b5259"/><path d="M39.3,57.4a.78.78,0,0,0-.56.21A8.87,8.87,0,0,1,37,58.67a18.47,18.47,0,0,1-3.88,1.44,14.16,14.16,0,0,1-2.83.37,5.36,5.36,0,0,1-.68-.06c-.16.06-.18-.1-.26-.16-.06-.3-.32-.51-.36-.81l.19-.12c.1,0,.21,0,.15-.19a.19.19,0,0,0-.26-.12,8.78,8.78,0,0,1-1.34.25,7,7,0,0,1-1.21,0,.74.74,0,0,1-.47-.2,4.25,4.25,0,0,1-1.51-2.35H39.28c.09,0,.23,0,.26.06a.26.26,0,0,1-.16.32c-.12,0-.17.1-.06.21Zm-9.18.39a.66.66,0,0,0-.59.63.75.75,0,0,0,.65.56.65.65,0,0,0,.56-.62A.66.66,0,0,0,30.12,57.79Z" fill="#1394c1"/><path d="M24.17,54.5a1,1,0,0,1,.39,0H39.34a7.44,7.44,0,0,0,3-.6l.15-.07c.58-.28.6-.41.09-.85h0a4.46,4.46,0,0,1-.39-1.76,3.34,3.34,0,0,1,.33-1.39c.11-.23.21-.26.41-.08a3.37,3.37,0,0,1,1.24,2.8.66.66,0,0,1,0,.15,16.16,16.16,0,0,1-2.65,2.77c-.14.11-.32.19-.32.41a2.17,2.17,0,0,1-1.23.48,6.82,6.82,0,0,1-3.5-.45,1,1,0,0,0-1.06.1,4.09,4.09,0,0,1-3.09.18,2.89,2.89,0,0,1-1.09-.52.21.21,0,0,0-.27,0,4.5,4.5,0,0,1-2.44.7,7.76,7.76,0,0,1-2.15-.12,1.21,1.21,0,0,1-.58-.28.38.38,0,0,0-.55,0,4.13,4.13,0,0,1-.79.29.2.2,0,0,1-.25-.11.56.56,0,0,0,0-.42A4.5,4.5,0,0,1,24.17,54.5Z" fill="#2ab0e4"/><path d="M41.17,55.85c0-.22.18-.3.32-.41a16.16,16.16,0,0,0,2.65-2.77.66.66,0,0,0,0-.15,4.18,4.18,0,0,1,1.24-.35,3.35,3.35,0,0,1,1.82.25c.23.1.17.24,0,.39a3.49,3.49,0,0,1-2,1.25,2.53,2.53,0,0,1-1.13,0c-.2,0-.34,0-.42.23A10.06,10.06,0,0,1,43,55.87c-.09.2-.22.29-.44.19a2,2,0,0,1-.37-.14A.91.91,0,0,0,41.17,55.85Z" fill="#1394c1"/><path d="M29.34,60.26c.08.06.1.22.26.16A4.78,4.78,0,0,0,31.38,62c.12.07.28.09.33.25a13,13,0,0,1-3.4-.4A8.56,8.56,0,0,1,25,60a2.34,2.34,0,0,1-.18-.23c.8,0,1.55,0,2.31,0,0,.14.16.15.27.2.45.22,1,.19,1.42.37C29,60.38,29.24,60.6,29.34,60.26Z" fill="#fbdcaf"/><path d="M28.17,53.67A5.78,5.78,0,0,1,28.06,52c0-.17.12-.24.28-.24h1.84c.19,0,.28.1.28.29,0,.56,0,1.13,0,1.7,0,.22-.13.3-.34.3H28.44c-.1,0-.2,0-.25-.11s.11-.08.14-.13a.38.38,0,0,0,0-.19V52.32c0-.08,0-.2-.1-.21s-.09.15-.09.23C28.17,52.78,28.17,53.23,28.17,53.67Zm.41-.66h0v.78c0,.07,0,.13.11.13s.11-.06.11-.13V52.26c0-.08,0-.16-.13-.15s-.09.11-.09.18Zm.83,0h0v-.79a.12.12,0,0,0-.11-.14c-.09,0-.08.08-.08.14q0,.77,0,1.53c0,.07,0,.14.1.14s.09-.07.09-.13ZM29.09,53v-.72c0-.07,0-.14-.09-.15s-.1,0-.1.1v1.51a.11.11,0,0,0,.09.11c.1,0,.1-.07.1-.13Zm.44,0h0c0,.25,0,.5,0,.75,0,.07,0,.14.1.14s.09-.05.09-.11V52.26c0-.07,0-.14-.11-.14s-.08.08-.09.14Zm.6,0h0v-.75a.12.12,0,0,0-.11-.14.08.08,0,0,0-.08.08c0,.52,0,1,0,1.54a.09.09,0,0,0,.1.1c.09,0,.08-.08.08-.14Z" fill="#2ab0e4"/><path d="M30.34,50.44c0,.29,0,.59,0,.88s-.06.26-.25.26H28.36c-.2,0-.28-.1-.27-.29,0-.57,0-1.15,0-1.73,0-.17.07-.23.23-.25a13.51,13.51,0,0,1,1.8,0c.18,0,.24.11.23.28S30.34,50.16,30.34,50.44Zm-1.76,0h0v.72c0,.08,0,.16.13.15s.1-.08.1-.15v-1.4c0-.08,0-.16-.12-.17s-.11.09-.11.16Zm.83,0v-.71c0-.07,0-.14-.1-.14s-.09.08-.09.14v1.4c0,.07,0,.14.1.14s.09-.08.09-.14Zm-.51,0h0v.72c0,.06,0,.14.09.15s.11-.06.11-.13V49.66s0-.11-.09-.11-.1.06-.1.12C28.89,49.9,28.9,50.13,28.9,50.36Zm1.23.06V49.7c0-.07,0-.14-.09-.15s-.1.06-.1.13v1.4c0,.07,0,.14.09.15s.1-.09.1-.16Zm-.4,0V49.7c0-.06,0-.14-.09-.15s-.1.06-.1.13v1.43a.11.11,0,0,0,.08.12c.09,0,.11-.06.11-.13Zm-1.37-.76a13.68,13.68,0,0,1-.16,1.45c0,.06,0,.12.07.12s.09-.08.09-.14Z" fill="#1394c1"/><path d="M35.39,47.88v.88c0,.14,0,.25-.19.23-.57-.06-1.13,0-1.7,0-.26,0-.37-.07-.36-.35,0-.53,0-1.07,0-1.61,0-.26.09-.34.34-.33h1.61c.22,0,.32.08.31.3S35.39,47.59,35.39,47.88Zm-.81,0h0V47.1c0-.08,0-.14-.1-.15s-.09.07-.09.14v1.53c0,.08,0,.17.11.16s.08-.11.08-.18C34.59,48.36,34.58,48.12,34.58,47.88ZM34,48h0V47.2c0-.07,0-.14-.1-.14s-.09.07-.09.13V48.6c0,.09,0,.17.1.18s.09-.1.09-.17S34,48.17,34,48Zm.73-.06c0,.24,0,.48,0,.72,0,.06,0,.12.07.13s.11-.06.11-.12q0-.72,0-1.44c0-.06,0-.13-.1-.12s-.08.09-.09.15C34.67,47.44,34.67,47.67,34.68,47.89Zm.62,0c0-.24,0-.48,0-.72,0-.07,0-.15-.08-.15s-.1.07-.1.14q0,.7,0,1.41c0,.06,0,.14.1.13s.08-.09.08-.15C35.31,48.3,35.3,48.08,35.3,47.86Zm-1.23,0h0v.75c0,.07,0,.14.1.15s.09,0,.09-.11V47.19c0-.07,0-.14-.12-.13s-.07.1-.07.15Zm-.72,0h0v.72c0,.07,0,.14.1.14s.09-.07.09-.14V47.2a.12.12,0,0,0-.11-.14c-.09,0-.08.08-.08.14Z" fill="#2ab0e4"/><path d="M27.49,54c0,.1-.07.11-.15.11H25.93c-.17,0-.16-.05-.15-.21,0-.46,0-.93,0-1.4,0-.09,0-.2-.12-.19s-.07.12-.07.19c0,.46,0,.91,0,1.37,0,.08.06.21-.07.21s-.13-.12-.13-.22V52c0-.15.07-.21.22-.21h1.76c.16,0,.27.06.27.25v1.73c0,.1,0,.18-.14.18a11.5,11.5,0,0,0,0-1.76c0-.05,0-.12-.08-.12s-.11.09-.11.16v1.57A.15.15,0,0,0,27.49,54Zm-.65-1h0c0-.25,0-.5,0-.75a.12.12,0,0,0-.11-.13c-.08,0-.07.08-.07.13v1.44c0,.07,0,.15.1.15s.09-.08.09-.15ZM27,54s.07-.07.07-.1c0-.5,0-1,0-1.49,0-.07,0-.14-.11-.13s-.08.1-.08.16v1.24C26.93,53.75,26.89,53.88,27,54Zm-1.1-.9v.69c0,.07,0,.17.1.16s.09-.08.09-.15V52.39c0-.06,0-.14-.09-.15s-.1.1-.1.17Zm.4,0v.72c0,.06,0,.14.09.14s.1-.07.1-.13V52.4c0-.07,0-.17-.11-.16s-.08.09-.08.15Z" fill="#1394c1"/><path d="M33.14,52.9c0-.28,0-.55,0-.82s.09-.31.31-.31h1.67c.19,0,.28.07.28.27q0,.87,0,1.74c0,.22-.1.28-.3.28-.56,0-1.11,0-1.67,0-.21,0-.3-.07-.29-.28S33.14,53.19,33.14,52.9Zm.72.1v-.78c0-.08,0-.17-.09-.19s-.13.08-.13.16v1.56c0,.08,0,.17.12.17s.1-.1.1-.17Zm1.25,1a.36.36,0,0,0,.2-.34c0-.43,0-.87,0-1.3,0-.08,0-.17-.09-.19s-.09.06-.1.13Zm-.72-1h0v.75c0,.07,0,.14.1.14a.08.08,0,0,0,.09-.08c0-.51,0-1,0-1.54,0-.06,0-.11-.1-.1s-.08.08-.08.14C34.38,52.49,34.39,52.72,34.39,53Zm.28,0h0v.75c0,.08,0,.14.1.15s.09-.07.09-.14v-1.4c0-.08,0-.17-.1-.18s-.09.1-.09.17S34.67,52.72,34.67,52.93Zm-.6,0h0v.75c0,.06,0,.13.11.13s.08-.06.08-.12V52.23a.1.1,0,0,0-.13-.11c-.07,0-.06.08-.06.12Zm-.53.14v-.66c0-.07,0-.17-.1-.17s-.09.1-.09.17v1.34c0,.07,0,.17.1.17s.09-.1.09-.17Z" fill="#2ab0e4"/><path d="M35.92,54.05c-.16-.06-.13-.19-.13-.29,0-.53,0-1.07,0-1.6,0-.19,0-.28.26-.27h1.77c.22,0,.28.09.28.29q0,.87,0,1.74c0,.22-.07.29-.29.23a5.17,5.17,0,0,0-1.47-.08c-.17,0-.26,0-.24-.24a10.92,10.92,0,0,0,0-1.28c0-.08,0-.2-.11-.18s-.07.11-.07.18Zm.63-1v-.69c0-.08,0-.15-.14-.14s-.09.08-.09.15v1.4c0,.08,0,.15.13.14s.1-.08.1-.15Zm1.32,0h0v-.78c0-.07,0-.14-.11-.14s-.08.07-.08.12c0,.51,0,1,0,1.54,0,.07,0,.14.1.13s.08-.08.08-.14ZM37,53h0v.81c0,.06,0,.11.08.12s.11,0,.11-.09c0-.53,0-1.06,0-1.59a.1.1,0,0,0-.09-.11c-.1,0-.09.08-.09.14Zm.32.09v.72c0,.06,0,.12.08.12s.11,0,.11-.12V52.38c0-.07,0-.14-.1-.14s-.09.08-.09.14Zm-.45,0h0c0-.24,0-.47,0-.71,0-.07,0-.14-.1-.13s-.08.07-.08.12v1.41c0,.07,0,.14.09.14s.1-.07.1-.14Z" fill="#1394c1"/><path d="M32.94,50.5c0,.28,0,.57,0,.85s-.06.23-.23.23H31c-.08,0-.17,0-.19-.08s0-.1.1-.13.08-.17.08-.26V49.92a.34.34,0,0,0-.09-.3c-.21-.17-.1-.3.1-.31.58,0,1.16,0,1.74,0,.18,0,.22.15.22.3Zm-1.24-.08h0c0-.24,0-.48,0-.72,0-.08,0-.16-.13-.15s-.09.05-.09.11c0,.48,0,1,0,1.44a.12.12,0,0,0,.11.13c.11,0,.1-.09.11-.16Zm.81-.07h0v.75c0,.07,0,.14.11.13s.08-.07.08-.12V49.57c0-.07,0-.14-.1-.14s-.09.1-.09.17Zm-.25,1V49.51A2.58,2.58,0,0,0,32.26,51.33Zm-.47-.89h0v.78a.12.12,0,0,0,.12.13c.08,0,.07-.08.07-.13V49.78a.13.13,0,0,0-.11-.14c-.09,0-.08.08-.08.14Zm-.42,0c0-.24,0-.48,0-.72,0-.07,0-.14-.09-.15s-.1.07-.1.13v1.4c0,.07,0,.15.09.15s.1-.09.1-.16S31.38,50.64,31.37,50.42Z" fill="#2ab0e4"/><path d="M33.25,49.67c0-.29.11-.39.38-.39h1.54c.24,0,.36.07.35.34,0,.54,0,1.07,0,1.6,0,.25-.09.36-.35.36H33.53c-.19,0-.33,0-.3-.27h.12c.14.11.19,0,.19-.1,0-.5,0-1,0-1.49,0-.23-.11-.12-.19-.06Zm1.1.65h0c0,.25,0,.5,0,.75,0,.08,0,.16.12.16s.1-.09.1-.17c0-.33,0-.67,0-1,0-.14,0-.28,0-.42s0-.2-.13-.2-.09.13-.09.21S34.35,50.09,34.35,50.32Zm-.49.19h0v-.72a.15.15,0,0,0-.1-.16c-.08,0-.12,0-.12.12q0,.73,0,1.47a.13.13,0,0,0,.12.14c.11,0,.1-.09.1-.17Zm.4,0h0v-.75c0-.07,0-.13-.12-.12s-.07.07-.07.12V51.2c0,.07,0,.16.12.15s.07-.09.07-.15C34.27,51,34.26,50.74,34.26,50.51Zm.41-.13v.69c0,.07,0,.14.09.15s.1-.06.1-.13v-1.4c0-.07,0-.15-.1-.14s-.09.08-.09.15Zm.64,0v-.65c0-.08,0-.17-.11-.17s-.08.08-.08.15c0,.46,0,.93,0,1.39,0,.07,0,.14.1.14s.09-.08.09-.15Z" fill="#1394c1"/><path d="M30.53,52.86c0-.29,0-.59,0-.88s.06-.21.21-.21h1.74c.09,0,.2,0,.21.1s.07.25,0,.33a.21.21,0,0,0-.13.2c0,.49,0,1,0,1.47,0,.16,0,.19-.15.19h-1.6c-.22,0-.24-.15-.24-.31S30.53,53.16,30.53,52.86ZM31.7,53h0c0-.25,0-.5,0-.75,0-.06,0-.15-.08-.15s-.13.06-.14.14v.56c0,.28,0,.57,0,.85,0,.1,0,.23.13.23s.09-.14.09-.22S31.7,53.17,31.7,53Zm.55-.84a8.79,8.79,0,0,0,0,1.7c0,.06,0,.17.12.15s.1-.1.1-.18V52.31C32.42,52.23,32.4,52.15,32.25,52.11ZM31,53h0v-.72c0-.08,0-.16-.12-.17s-.1.1-.1.17q0,.69,0,1.38c0,.09,0,.18.14.17s.08-.11.08-.18Zm.4,0c0-.25,0-.5,0-.75,0-.08,0-.18-.08-.19s-.1.1-.1.17c0,.51,0,1,0,1.54,0,.06,0,.15.07.15s.11-.09.11-.17Zm.6.08c0-.22,0-.44,0-.66s0-.17-.1-.16-.08.08-.08.15v1.37c0,.06,0,.15.08.15s.1-.1.1-.17C32,53.51,32,53.29,32,53.06Z" fill="#1394c1"/><path d="M24.17,54.5a4.5,4.5,0,0,0,0,1.16.56.56,0,0,1,0,.42,3.77,3.77,0,0,0-.58,0c-.28.07-.39,0-.4-.3s0-.35,0-.53C23.17,54.58,23.45,54.35,24.17,54.5Z" fill="#1394c1"/><path d="M29.34,60.26c-.1.34-.37.12-.48.08-.46-.18-1-.15-1.42-.37-.11,0-.23-.06-.27-.2L29,59.45C29,59.75,29.28,60,29.34,60.26Z" fill="#fefefe"/><path d="M33.35,51.31h-.12a11.21,11.21,0,0,1,0-1.64h.1Z" fill="#1286ae"/><path d="M33.35,25a.38.38,0,0,1,.19-.27C33.54,24.87,33.52,25,33.35,25Z" fill="#fefefe"/><path d="M33.09,25.34a.37.37,0,0,1,.2-.27A.23.23,0,0,1,33.09,25.34Z" fill="#fefefe"/><path d="M32.63,25.93a.45.45,0,0,1,.2-.27A.24.24,0,0,1,32.63,25.93Z" fill="#fefefe"/><path d="M32.44,26.16a.39.39,0,0,1,.19-.23C32.63,26.06,32.59,26.15,32.44,26.16Z" fill="#fefefe"/><path d="M32,26.71a.22.22,0,0,1,.13-.19C32.18,26.62,32.15,26.69,32,26.71Z" fill="#fefefe"/><path d="M31.77,27c0-.07.05-.13.14-.13S31.86,27,31.77,27Z" fill="#fefefe"/><path d="M31.32,27.59c0-.05.05-.1.13-.09S31.4,27.6,31.32,27.59Z" fill="#fefefe"/><path d="M32.89,25.6c0-.08,0-.14.13-.14S33,25.6,32.89,25.6Z" fill="#fefefe"/><path d="M32.23,26.45a.1.1,0,0,1,.09-.11C32.33,26.41,32.31,26.45,32.23,26.45Z" fill="#fefefe"/><path d="M31.71,27.17a.11.11,0,0,1,.07-.13A.12.12,0,0,1,31.71,27.17Z" fill="#fefefe"/><path d="M31.9,26.91a.13.13,0,0,1,.07-.13C32,26.84,32,26.88,31.9,26.91Z" fill="#fefefe"/><path d="M33,25.47a.11.11,0,0,1,.07-.14A.11.11,0,0,1,33,25.47Z" fill="#fefefe"/><path d="M31.44,27.5a.11.11,0,0,1,.08-.13A.11.11,0,0,1,31.44,27.5Z" fill="#fefefe"/><path d="M31.64,27.24s0-.07.07-.07Z" fill="#fefefe"/><path d="M32,26.78l.07-.07A.06.06,0,0,1,32,26.78Z" fill="#fefefe"/><path d="M31.58,27.31a.07.07,0,0,1,.06-.08A.07.07,0,0,1,31.58,27.31Z" fill="#fefefe"/><path d="M32.17,26.52l.07-.07A.06.06,0,0,1,32.17,26.52Z" fill="#fefefe"/><path d="M32.83,25.67l.06-.07S32.88,25.67,32.83,25.67Z" fill="#fefefe"/><path d="M30.53,28.62l.07-.07C30.6,28.6,30.58,28.63,30.53,28.62Z" fill="#fefefe"/><path d="M33.28,25.08l.07-.07S33.34,25.08,33.28,25.08Z" fill="#fefefe"/><path d="M30.59,28.55l.07-.1C30.66,28.5,30.65,28.55,30.59,28.55Z" fill="#fefefe"/><path d="M31.51,27.37l.07-.07C31.58,27.35,31.56,27.37,31.51,27.37Z" fill="#fefefe"/><path d="M39.3,57.4l0-.06c.18,0,.4,0,.39.26h0C39.61,57.47,39.43,57.49,39.3,57.4Z" fill="#3b5259"/><path d="M39.78,57.67s.1,0,.1.08l0,0c-.07,0-.08-.05-.08-.11Z" fill="#3b5259"/><path d="M39.71,57.6l.07.07h0l-.06-.06Z" fill="#3b5259"/><path d="M9.9,50.06a4.6,4.6,0,0,1-1.16-.18c-.17,0-.21-.11-.13-.27.29-.61.71-1.15,1-1.76a.33.33,0,0,1,.59,0c.34.59.65,1.19,1,1.78.07.13,0,.18-.11.22A4.53,4.53,0,0,1,9.9,50.06Z" fill="#336de5"/><path d="M6.84,42.87a4.32,4.32,0,0,1,2.44-1.18c0,.72,0,1.43,0,2.13a.37.37,0,0,1-.6.26Z" fill="#336de5"/><path d="M6,47.27A6.13,6.13,0,0,1,8,47c.43,0,.5.14.41.55-.14.57-.41,1.08-.6,1.62-.05.14-.11.2-.26.1A4.37,4.37,0,0,1,6,47.27Z" fill="#336de5"/><path d="M14.11,46.31a15.7,15.7,0,0,0-1.56-.51.9.9,0,0,1-.16,0c-.19-.07-.43-.07-.49-.33s.12-.38.28-.54c.36-.37.79-.65,1.13-1,.13-.14.26-.17.41.06a4.82,4.82,0,0,1,.51,2A1.24,1.24,0,0,1,14.11,46.31Z" fill="#336de5"/><path d="M8,45.21c0,.3-.1.45-.31.51-.61.21-1.25.28-1.87.46-.15,0-.18,0-.19-.16a3.37,3.37,0,0,1,.52-2.12c.06-.11.1-.13.22-.06.4.25.7.63,1.08.9.14.09.25.2.39.3S8.05,45.18,8,45.21Z" fill="#336de5"/><path d="M12.21,49.44c-.33-.69-.64-1.32-1-1.95a.36.36,0,0,1,0-.42.37.37,0,0,1,.39-.12l1.83.35c.16,0,.2.1.13.24A8.31,8.31,0,0,1,12.21,49.44Z" fill="#336de5"/><path d="M10.64,42.87c0-.29,0-.59,0-.88s0-.22.21-.19a6.09,6.09,0,0,1,1.86.87c.18.1.21.29,0,.44a9.25,9.25,0,0,0-1.54,1c-.17.17-.47,0-.48-.36S10.64,43.18,10.64,42.87Z" fill="#336de5"/><path d="M10,45.2a.58.58,0,0,1,.6.53c0,.49-.25.79-.63.79a.76.76,0,0,1-.72-.71C9.27,45.51,9.65,45.2,10,45.2Z" fill="#336de5"/><path d="M56.64,47.18c-1-.66-1.84-1.4-2.75-2.11a.29.29,0,0,1-.08-.38c.28-.66.55-1.33.82-2,0-.07,0-.16.15-.15s.08.09.11.15q.88,2.22,1.79,4.44Z" fill="#010101"/><path d="M56.68,47.14s0,.07,0,.1l0-.06Z" fill="#010101"/><path d="M37.13,7.26l.06.07a3.57,3.57,0,0,1,.5.72.89.89,0,0,1-.12.95,2.58,2.58,0,0,1-2.63.68,1.15,1.15,0,0,1-.61-1,.34.34,0,0,1,.11-.27c.1-.07.17,0,.24.1a1.57,1.57,0,0,0,1.46.25l.19,0c.67-.17.71-.29.24-.81a.38.38,0,0,0-.11-.11c-1-.58-.91-1.48-.79-2.4a.75.75,0,0,1,0-.16c0-.08,0-.17.09-.19s.13.1.15.17a6.36,6.36,0,0,0,.51,1.27A2.2,2.2,0,0,0,37.13,7.26Z" fill="#29343a"/><path d="M34.58,12.27a1.64,1.64,0,0,1-2-1.27.31.31,0,0,1,0-.15s.09,0,.11,0c.38.64,1,.49,1.61.53a13.26,13.26,0,0,0,1.41,0c.22,0,.23.08.16.25a.87.87,0,0,1-.63.56A3.64,3.64,0,0,1,34.58,12.27Z" fill="#29343a"/><path d="M30.53,4.8a1.94,1.94,0,0,1,1-1.51,2.5,2.5,0,0,0,.6-.28c.23-.21.89.21.9.53s-.07.38-.33.36a1.56,1.56,0,0,0-1.66,1c-.05.14-.15.31-.32.27S30.53,5,30.53,4.8Z" fill="#29343a"/><path d="M33.2,7.21a1.44,1.44,0,0,1-.8-.16c-.17-.1-.27-.2-.18-.42s.21-.33.45-.26a2.65,2.65,0,0,0,.74.11c.2,0,.28,0,.2-.24a3.22,3.22,0,0,1-.06-1c0-.08,0-.16.09-.18s.12.08.14.14a9.32,9.32,0,0,0,.57,1.14.51.51,0,0,1-.27.69A1.71,1.71,0,0,1,33.2,7.21Z" fill="#29343a"/><path d="M33.44,10.22c.74,0,1.47.11,2.19.09.12,0,.19,0,.18.16,0,.6.11.6-.54.54a3.48,3.48,0,0,1-1.59-.55C33.6,10.4,33.49,10.36,33.44,10.22Z" fill="#29343a"/><path d="M37.81,10.05a.54.54,0,0,1-.29.53,2.16,2.16,0,0,1-1,.33c-.19,0-.24-.05-.26-.22-.06-.48,0-.49.45-.58a4.11,4.11,0,0,1,1.05,0Z" fill="#29343a"/><path d="M37.81,10.06l0,0v0h0Z" fill="#29343a"/><path d="M30.12,57.79a.66.66,0,0,1,.62.57.65.65,0,0,1-.56.62.75.75,0,0,1-.65-.56A.66.66,0,0,1,30.12,57.79Zm0,1a.45.45,0,0,0,.43-.34c0-.05,0-.17-.05-.15s-.23-.12-.26-.26S30.16,58,30.1,58a.4.4,0,0,0-.37.42C29.72,58.63,29.8,58.8,30.11,58.8Z" fill="#fefefe"/><path d="M28.58,53v-.72c0-.07,0-.17.09-.18s.13.07.13.15v1.53c0,.07,0,.14-.11.13s-.11-.06-.11-.13V53Z" fill="#3b5259"/><path d="M29.41,53v.75c0,.06,0,.14-.09.13s-.1-.07-.1-.14q0-.77,0-1.53c0-.06,0-.14.08-.14a.12.12,0,0,1,.11.14V53Z" fill="#3b5259"/><path d="M29.09,53v.72c0,.06,0,.14-.1.13a.11.11,0,0,1-.09-.11V52.21c0-.06,0-.11.1-.1s.09.08.09.15Z" fill="#3b5259"/><path d="M29.53,53v-.69c0-.06,0-.15.09-.14s.11.07.11.14v1.47c0,.06,0,.11-.09.11s-.1-.07-.1-.14c0-.25,0-.5,0-.75Z" fill="#3b5259"/><path d="M30.13,53v.69c0,.06,0,.14-.08.14a.09.09,0,0,1-.1-.1c0-.51,0-1,0-1.54a.08.08,0,0,1,.08-.08.12.12,0,0,1,.11.14V53Z" fill="#3b5259"/><path d="M28.58,50.39V49.7c0-.07,0-.16.11-.16s.12.09.12.17v1.4c0,.07,0,.14-.1.15s-.13-.07-.13-.15v-.72Z" fill="#3b5259"/><path d="M29.41,50.4v.69c0,.06,0,.14-.09.14s-.1-.07-.1-.14v-1.4c0-.06,0-.14.09-.14s.1.07.1.14Z" fill="#3b5259"/><path d="M28.9,50.36c0-.23,0-.46,0-.69,0-.06,0-.13.1-.12s.09.06.09.11V51.1c0,.07,0,.14-.11.13s-.09-.09-.09-.15v-.72Z" fill="#3b5259"/><path d="M30.13,50.42v.65c0,.07,0,.17-.1.16s-.09-.08-.09-.15v-1.4c0-.07,0-.14.1-.13s.09.08.09.15Z" fill="#3b5259"/><path d="M29.73,50.42v.68c0,.07,0,.14-.11.13a.11.11,0,0,1-.08-.12V49.68c0-.07,0-.14.1-.13s.09.09.09.15Z" fill="#3b5259"/><path d="M28.36,49.66v1.43c0,.06,0,.14-.09.14s-.08-.06-.07-.12A13.68,13.68,0,0,0,28.36,49.66Z" fill="#3b5259"/><path d="M34.58,47.88c0,.24,0,.48,0,.72,0,.07,0,.17-.08.18s-.11-.08-.11-.16V47.09c0-.07,0-.15.09-.14s.1.07.1.15v.78Z" fill="#3b5259"/><path d="M34,48c0,.22,0,.44,0,.66s0,.17-.09.17-.1-.09-.1-.18V47.19c0-.06,0-.14.09-.13s.1.07.1.14V48Z" fill="#3b5259"/><path d="M34.67,47.89v-.68c0-.06,0-.14.09-.15s.1.06.1.12q0,.72,0,1.44c0,.06,0,.13-.11.12s-.07-.07-.07-.13C34.67,48.37,34.68,48.13,34.67,47.89Z" fill="#3b5259"/><path d="M35.3,47.86c0,.22,0,.44,0,.66,0,.06,0,.14-.08.15s-.1-.07-.1-.13q0-.7,0-1.41c0-.07,0-.15.1-.14s.08.08.08.15C35.31,47.38,35.3,47.62,35.3,47.86Z" fill="#3b5259"/><path d="M34.07,47.86v-.65c0-.05,0-.14.07-.15s.12.06.12.13v1.46c0,.06,0,.11-.09.11s-.1-.08-.1-.15v-.75Z" fill="#3b5259"/><path d="M33.35,47.89V47.2c0-.06,0-.14.08-.14a.12.12,0,0,1,.11.14v1.41c0,.07,0,.14-.09.14s-.1-.07-.1-.14v-.72Z" fill="#3b5259"/><path d="M27.49,54a.15.15,0,0,1-.12-.17V52.21c0-.07,0-.16.11-.16s.08.07.08.12a11.5,11.5,0,0,1,0,1.76Z" fill="#3b5259"/><path d="M26.84,53v.69c0,.07,0,.15-.09.15s-.1-.08-.1-.15V52.25s0-.12.07-.13a.12.12,0,0,1,.11.13c0,.25,0,.5,0,.75Z" fill="#3b5259"/><path d="M27,54c-.14-.08-.1-.21-.1-.32V52.4c0-.06,0-.14.08-.16s.11.06.11.13c0,.49,0,1,0,1.49C27.1,53.89,27.06,53.93,27,54Z" fill="#3b5259"/><path d="M25.93,53.06v-.65c0-.07,0-.17.1-.17s.09.09.09.15v1.37c0,.07,0,.15-.09.15s-.1-.09-.1-.16Z" fill="#3b5259"/><path d="M26.33,53.05v-.66c0-.06,0-.14.08-.15s.11.09.11.16v1.38c0,.06,0,.14-.1.13s-.09-.08-.09-.14Z" fill="#3b5259"/><path d="M33.86,53v.75c0,.07,0,.16-.1.17s-.12-.09-.12-.17V52.19c0-.08,0-.17.13-.16s.09.11.09.19Z" fill="#3b5259"/><path d="M35.11,54v-1.7c0-.07,0-.15.1-.13s.09.11.09.19c0,.43,0,.87,0,1.3A.36.36,0,0,1,35.11,54Z" fill="#3b5259"/><path d="M34.39,53c0-.23,0-.46,0-.69,0-.06,0-.14.08-.14s.1,0,.1.1c0,.51,0,1,0,1.54a.08.08,0,0,1-.09.08c-.08,0-.1-.07-.1-.14V53Z" fill="#3b5259"/><path d="M34.67,52.93c0-.21,0-.43,0-.65s0-.17.09-.17.1.1.1.18v1.4c0,.07,0,.15-.09.14s-.1-.07-.1-.15v-.75Z" fill="#3b5259"/><path d="M34.07,52.93v-.69s0-.11.06-.12a.1.1,0,0,1,.13.11v1.46c0,.06,0,.12-.08.12s-.11-.07-.11-.13v-.75Z" fill="#3b5259"/><path d="M33.54,53.07v.68c0,.07,0,.18-.09.17s-.1-.1-.1-.17V52.41c0-.07,0-.18.09-.17s.1.1.1.17Z" fill="#3b5259"/><path d="M36.55,53.06v.71c0,.07,0,.14-.1.15s-.13-.06-.13-.14v-1.4c0-.07,0-.14.09-.15s.14.06.14.14Z" fill="#3b5259"/><path d="M37.87,53v.73c0,.06,0,.14-.08.14s-.1-.06-.1-.13c0-.51,0-1,0-1.54,0-.05,0-.12.08-.12s.11.07.11.14V53Z" fill="#3b5259"/><path d="M37,53v-.72c0-.06,0-.14.09-.14a.1.1,0,0,1,.09.11c0,.53,0,1.06,0,1.59,0,.07,0,.11-.11.09s-.08-.06-.08-.12V53Z" fill="#3b5259"/><path d="M37.28,53.07v-.69c0-.06,0-.14.09-.14s.1.07.1.14v1.41c0,.07,0,.13-.11.12s-.08-.06-.08-.12Z" fill="#3b5259"/><path d="M36.83,53.08v.69c0,.07,0,.15-.1.14s-.09-.07-.09-.14V52.36s0-.11.08-.12.1.06.1.13c0,.24,0,.47,0,.71Z" fill="#3b5259"/><path d="M31.7,50.42v.65c0,.07,0,.16-.11.16a.12.12,0,0,1-.11-.13c0-.48,0-1,0-1.44,0-.06,0-.11.09-.11s.13.07.13.15c0,.24,0,.48,0,.72Z" fill="#3b5259"/><path d="M32.51,50.35V49.6c0-.07,0-.17.09-.17s.1.07.1.14v1.54s0,.11-.08.12-.11-.06-.11-.13v-.75Z" fill="#3b5259"/><path d="M32.26,51.33a2.58,2.58,0,0,1,0-1.82Z" fill="#3b5259"/><path d="M31.79,50.44v-.66c0-.06,0-.14.08-.14a.13.13,0,0,1,.11.14v1.44c0,.05,0,.12-.07.13a.12.12,0,0,1-.12-.13v-.78Z" fill="#3b5259"/><path d="M31.37,50.42c0,.22,0,.43,0,.65s0,.17-.1.16-.09-.08-.09-.15v-1.4c0-.06,0-.14.1-.13s.09.08.09.15C31.38,49.94,31.37,50.18,31.37,50.42Z" fill="#3b5259"/><path d="M34.35,50.32c0-.23,0-.46,0-.68s0-.21.09-.21.12.12.13.2,0,.28,0,.42c0,.34,0,.68,0,1,0,.08,0,.17-.1.17s-.12-.08-.12-.16c0-.25,0-.5,0-.75Z" fill="#3b5259"/><path d="M33.86,50.51v.68c0,.08,0,.17-.1.17a.13.13,0,0,1-.12-.14q0-.73,0-1.47c0-.07,0-.13.12-.12a.15.15,0,0,1,.1.16v.72Z" fill="#3b5259"/><path d="M33.35,51.31V49.66c.08-.06.19-.17.19.06,0,.49,0,1,0,1.49C33.54,51.36,33.49,51.42,33.35,51.31Z" fill="#3b5259"/><path d="M34.26,50.51c0,.23,0,.46,0,.69,0,.06,0,.14-.07.15s-.12-.08-.12-.15V49.76s0-.12.07-.12.12,0,.12.12v.75Z" fill="#3b5259"/><path d="M34.67,50.38V49.7c0-.07,0-.15.09-.15s.1.07.1.14v1.4c0,.07,0,.15-.1.13s-.09-.08-.09-.15Z" fill="#3b5259"/><path d="M35.31,50.37v.71c0,.07,0,.15-.09.15s-.1-.07-.1-.14c0-.46,0-.93,0-1.39,0-.07,0-.15.08-.15s.11.09.11.17Z" fill="#3b5259"/><path d="M31.7,53c0,.22,0,.44,0,.66s0,.23-.09.22-.13-.13-.13-.23c0-.28,0-.57,0-.85v-.56c0-.08.05-.16.14-.14s.08.09.08.15c0,.25,0,.5,0,.75Z" fill="#3b5259"/><path d="M32.25,52.11c.15,0,.17.12.17.2v1.47c0,.08,0,.17-.1.18s-.12-.09-.12-.15A8.79,8.79,0,0,1,32.25,52.11Z" fill="#3b5259"/><path d="M31,53v.65c0,.07,0,.18-.08.18s-.14-.08-.14-.17q0-.69,0-1.38c0-.07,0-.17.1-.17s.12.09.12.17V53Z" fill="#3b5259"/><path d="M31.37,53v.75c0,.08,0,.17-.11.17s-.07-.09-.07-.15c0-.51,0-1,0-1.54,0-.07,0-.18.1-.17s.08.11.08.19C31.38,52.48,31.37,52.73,31.37,53Z" fill="#3b5259"/><path d="M32,53.06c0,.23,0,.45,0,.68,0,.07,0,.17-.1.17s-.08-.09-.08-.15V52.39c0-.07,0-.15.08-.15s.1.09.1.16S32,52.84,32,53.06Z" fill="#3b5259"/><path d="M30.11,58.8c-.31,0-.39-.17-.38-.4A.4.4,0,0,1,30.1,58c.06,0,.12,0,.13.07s0,.3.26.26.06.1.05.15A.45.45,0,0,1,30.11,58.8Z" fill="#3b5259"/></svg>