<!-- The SVG Design by Ala GARBAA - AlaGarbaa.com --><svg xmlns="http://www.w3.org/2000/svg" viewBox="0 0 30.98 26.64"><g opacity="0.3"><path d="M15.12,22.06S15,22.06,15,22a.82.82,0,0,0-.62-.44c-.51.32-.94.6-1.39.85a.65.65,0,0,1-.39,0l-.72-.18c-.24-.06-.48,0-.48.36v1.06a.94.94,0,0,1-.41.86,1,1,0,0,0-.54.87.56.56,0,0,1-.61.47.51.51,0,0,1-.51-.42.63.63,0,0,1,.38-.71c.17,0,.35,0,.52-.08a1.22,1.22,0,0,0,.83-1.13v-1a.58.58,0,0,1,.51-.65.55.55,0,0,1,.28,0l.63.17a.63.63,0,0,0,.84-.31l0-.09c.07-.14.15-.27.22-.4h.15l-.47-.87c-.36.22-.63.42-.93.57a1.55,1.55,0,0,1-.6.14A5.77,5.77,0,0,1,11,21a.65.65,0,0,0-.73.54v0h0a2.1,2.1,0,0,1-1,2,1,1,0,0,1-.64.25.67.67,0,0,0-.63.32.54.54,0,0,1-.74.11h0a.57.57,0,0,1-.08-.76A.6.6,0,0,1,8,23.26H8c.66.39.73.33,1.35-.1s.56-1,.62-1.54a1,1,0,0,1,1-1,1,1,0,0,1,.34.06.93.93,0,0,1,.4.06.44.44,0,0,0,.54-.25c.09-.15.21-.29.29-.44a.26.26,0,0,0,0-.21c-.12-.2-.25-.39-.39-.61-.34.2-.62.39-.93.54a.78.78,0,0,1-.54.11c-.92-.3-1.56.54-1.48,1.46,0,.1.11.19.18.28a.54.54,0,0,1,0,.64.6.6,0,0,1-.65.27.42.42,0,0,1-.4-.39.63.63,0,0,1,.17-.43,1,1,0,0,0,.39-.85,1.73,1.73,0,0,1,1-1.31,1.57,1.57,0,0,1,.53,0c.54.08.59.06.82-.43a1.67,1.67,0,0,1,.18-.28V18.7c-.18-.59-.3-.64-.84-.37l-2,1a.76.76,0,0,0-.5.75.61.61,0,0,1,0,.19A1.81,1.81,0,0,1,7.15,22a8.3,8.3,0,0,0-.64.54,1,1,0,0,0-.47.73.57.57,0,0,1-.64.46A.43.43,0,0,1,5,23.32v0c0-.31.18-.64.47-.64A1.92,1.92,0,0,0,6.66,22h0a2.18,2.18,0,0,0,1.12-2,1.06,1.06,0,0,1,.69-.95c.28-.13.55-.29.83-.43.08,0,.17-.12.25-.12.48,0,.62-.36.77-.7s0-.49-.23-.66-.28,0-.41.05A9.49,9.49,0,0,0,6.5,19.42a1.4,1.4,0,0,0-.39.65,2.5,2.5,0,0,1-.8,1.28c-1.31,1-2.58,2.1-3.83,3.2a1.1,1.1,0,0,0-.31.53.78.78,0,0,1-.73.62A.47.47,0,0,1,0,25.2H0a.73.73,0,0,1,.65-.72,1,1,0,0,0,.73-.33L5.14,21a1.29,1.29,0,0,0,.48-.73,2.74,2.74,0,0,1,1-1.49c.39-.31.76-.63,1.15-.92s.6-.36.88-.56a4.6,4.6,0,0,0,.56-.52c.07-.08.12-.17.19-.26s-.14-.5-.2-.78a.27.27,0,0,0-.27-.25l-.08,0c-.25,0-.5.08-.75.1a1.89,1.89,0,0,0-1.16.55c-.75.66-1.5,1.33-2.31,1.92a11.11,11.11,0,0,1-1.86,1,2,2,0,0,1-1.35,0,.88.88,0,0,0-.42.08c-.32.14-.58.1-.68-.13a.6.6,0,0,1,.37-.74.44.44,0,0,1,.59.2s0,0,0,.05a.7.7,0,0,0,.75.38,2.61,2.61,0,0,0,1.17-.24,15.06,15.06,0,0,0,1.87-1.28C5.66,17,6.2,16.48,6.73,16a2.61,2.61,0,0,1,1.63-.69L9,15.24c.32,0,.44-.16.51-.52h0A22.75,22.75,0,0,0,7,14.81a1.07,1.07,0,0,0-.54.19c-.5.39-1,.79-1.47,1.21a1.25,1.25,0,0,1-1.12.34c-.48-.09-1-.23-1.43-.32a2.62,2.62,0,0,0-.56,0c-.18,0-.41,0-.5-.11a.53.53,0,0,1,0-.49,1,1,0,0,1,.55-.28c.22,0,.32.15.36.38s.14.17.24.2a3.54,3.54,0,0,0,1.91.13A1.88,1.88,0,0,0,5,15.68a14.48,14.48,0,0,0,1.15-.92,1.48,1.48,0,0,1,1-.28h1a.7.7,0,0,0,.38-.11c.12-.08.31-.26.29-.33a1,1,0,0,0-.38-.48,1.84,1.84,0,0,0-.7-.07.91.91,0,0,1-.64-.34c-.53-.54-1.1-1.1-1.62-1.65A1,1,0,0,0,5,11.29a1.09,1.09,0,0,0-.44,0,1.19,1.19,0,0,1-1.22-.5,11.51,11.51,0,0,0-.91-.94A.93.93,0,0,0,2,9.65c-.23,0-.39-.09-.41-.34a.52.52,0,0,1,.5-.5c.22,0,.4,0,.41.31a.82.82,0,0,0,.3.62l1,1a.79.79,0,0,0,.66.26c1.28,0,.88-.2,1.8.72.38.39.74.79,1.12,1.18a.78.78,0,0,0,.94.19.55.55,0,0,0,.2-.39.79.79,0,0,0-.1-.45A.72.72,0,0,0,8.12,12a4.08,4.08,0,0,1-.57-.34c-.44-.42-.86-.88-1.3-1.3a.82.82,0,0,0-.47-.19,4.51,4.51,0,0,0-.9,0,.9.9,0,0,1-.75-.3c-.48-.48-1-1-1.46-1.4a1.13,1.13,0,0,0-.49-.24c-.21-.06-.38-.13-.35-.39a.55.55,0,0,1,.58-.43.31.31,0,0,1,.33.39.5.5,0,0,0,.19.49c.51.48,1,1,1.51,1.45a.71.71,0,0,0,.41.17,5.57,5.57,0,0,0,1,0,.83.83,0,0,1,.69.29c.44.46.89.9,1.35,1.35.09.08.24.18.33.15s.15-.19.2-.31a.81.81,0,0,0-.27-1c-.3-.26-.55-.57-.85-.82a1,1,0,0,0-.63-.27,2.06,2.06,0,0,1-2-1,.53.53,0,0,1,0-.39c.18-.51.41-1,.59-1.51a1.62,1.62,0,0,0,0-.44c0-.17,0-.41.16-.48a.64.64,0,0,1,.54,0c.22.08.16.42,0,.59a1.38,1.38,0,0,0-.43.5c-.2.42-.34.87-.53,1.3a.39.39,0,0,0,0,.47,1.84,1.84,0,0,0,1.71.8.83.83,0,0,1,.72.29l1.12,1.12c.15-.31.28-.55.38-.81a.33.33,0,0,0-.11-.26A15.1,15.1,0,0,0,7.54,8.24a.91.91,0,0,0-.63-.09,2,2,0,0,0-.6.25c-.21.09-.43.13-.57-.07a.61.61,0,0,1,0-.42.41.41,0,0,1,.54-.22h0a1.52,1.52,0,0,0,1,.17.91.91,0,0,1,.54.28c.38.33.75.69,1.1,1.06.18.19.32.19.48,0s.32-.36.46-.51c-.48-.42-1-.84-1.44-1.24a.49.49,0,0,0-.28-.11,5.08,5.08,0,0,1-1.73-.22C6.22,7,6,7,6,6.73a.52.52,0,0,1,.52-.44c.23,0,.41.07.42.35s.07.44.49.43a2.58,2.58,0,0,1,.68,0,1.43,1.43,0,0,1,.59.23c.38.28.74.6,1.11.91a.45.45,0,0,0,.61.07l.06-.07A2.26,2.26,0,0,1,10.79,8,15.72,15.72,0,0,0,9.21,6.59a.92.92,0,0,0-.63-.08A1.63,1.63,0,0,1,7.16,6c-.44-.47-.92-.9-1.4-1.33a.87.87,0,0,0-.44-.16c-.2,0-.35,0-.39-.27a.36.36,0,0,1,.28-.41h0c.4-.12.54,0,.59.4A.58.58,0,0,0,6,4.41C6.58,5,7.17,5.53,7.78,6.07a.52.52,0,0,0,.39.14,2.3,2.3,0,0,1,2.16.94h.07c.73.68.73.68,1.59.19L10.26,5.81a1.29,1.29,0,0,0-1.09-.24,1.07,1.07,0,0,1-1-.32c-.66-.63-1.33-1.24-2-1.84a1.2,1.2,0,0,0-.4-.26A19.36,19.36,0,0,1,1.63,1.46a1.69,1.69,0,0,0-.44-.12,3.69,3.69,0,0,1-.56-.19A.28.28,0,0,1,.56.77.3.3,0,0,1,.7.67a.62.62,0,0,1,.71.25,2,2,0,0,0,.45.41,16.51,16.51,0,0,0,4,1.61,1,1,0,0,1,.44.21l2.16,2a.76.76,0,0,0,.7.23,1.94,1.94,0,0,1,.59,0,1.56,1.56,0,0,1,.62.23c.48.39.93.81,1.38,1.22a1.45,1.45,0,0,0,1.17.4,7.93,7.93,0,0,0,1.19-.17,1.44,1.44,0,0,0-.28-.27c-.19-.1-.41-.15-.6-.24a5.59,5.59,0,0,1-.86-.4.74.74,0,0,1-.4-.8c.06-.3-.47-.74-.84-.73s-.4-.06-.41-.3a.44.44,0,0,1,.41-.44c.22,0,.44,0,.46.28a.86.86,0,0,0,.39.63.62.62,0,0,1,.26.72c0,.06,0,.18.06.21q.54.35,1.11.66c.28.16.57.29.86.44,0,0,.09,0,.09.07,0,.56.54.36.8.54a.18.18,0,0,0,.05-.07c.2-.9.07-1.12-.81-1.43a7.19,7.19,0,0,1-1-.4.6.6,0,0,1-.28-.61A.54.54,0,0,0,13,4.48c-1-.85-.78-.61-.85-1.91V1a1,1,0,0,1,.12-.32h.11V3.16a.79.79,0,0,0,.3.65c.13.1.24.23.38.32a.7.7,0,0,1,.38.78c0,.25.15.39.37.48l1.08.39a.84.84,0,0,1,.66,1,.53.53,0,0,1,0,.12c-.08.57,0,.71.7.86l.09-1V6.2a1,1,0,0,1,1-1h.07a1.54,1.54,0,0,0,.43,0,.81.81,0,0,0,.65-.94,1,1,0,0,0,0-.34.51.51,0,0,1,.25-.59l1-.77a1.12,1.12,0,0,0,.48-.77,4.53,4.53,0,0,0,.13-.64,1.33,1.33,0,0,0-.06-.56c-.06-.21-.05-.36.16-.46a.48.48,0,0,1,.67.13c.1.21,0,.31-.18.44a.89.89,0,0,0-.27.39c-.36,1.51-.08,1.14-1.44,2.18a.88.88,0,0,0-.43,1,.82.82,0,0,1-.54,1,2.47,2.47,0,0,1-.84.21.73.73,0,0,0-.76.7V6.2c0,.46-.07.93-.11,1.4s.1.51.38.53a.47.47,0,0,0,.52-.39V6.83A.77.77,0,0,1,18.15,6a2.4,2.4,0,0,0,1.46-.94.7.7,0,0,0,.06-.51,1.22,1.22,0,0,1,.65-1.38c.1,0,.17-.16.27-.21.57-.29.68-.85.81-1.4a.37.37,0,0,0-.1-.3c-.13-.18-.15-.34,0-.48a.53.53,0,0,1,.71,0c.16.2,0,.33-.09.48a1.15,1.15,0,0,0-.3.48,2.45,2.45,0,0,1-1.31,1.69.78.78,0,0,0-.38.9,1.2,1.2,0,0,1-.56,1.28,2.79,2.79,0,0,1-1.28.59.61.61,0,0,0-.38.42,7.33,7.33,0,0,0-.09,1.15A5.39,5.39,0,0,0,18.5,8a.72.72,0,0,0,.5.05c.19-.12.34-.3.53-.44a2.16,2.16,0,0,0,1-1.49A1.77,1.77,0,0,1,21.39,5c.09-.07.25,0,.38,0l1-.08c.12,0,.27,0,.36,0s.28.23.29.35a.53.53,0,0,1-.26.37.51.51,0,0,1-.63-.11,1,1,0,0,0-1.41,0,1.14,1.14,0,0,0-.24.41,3.36,3.36,0,0,1-1.5,2.23,3.65,3.65,0,0,0-.36.31v.09c.53.52.53.52,1.11,0l1.43-1.16a.65.65,0,0,0,.07-.93.23.23,0,0,0-.07-.07c-.09-.09-.18-.26-.14-.36a.57.57,0,0,1,.31-.3.56.56,0,0,1,.36,0,.34.34,0,0,1,.17.63.46.46,0,0,0-.17.51c.07.34-.14.56-.39.76l-1.6,1.3-.29.26a6,6,0,0,0,.78.63c.07,0,.34-.06.39-.16a4.66,4.66,0,0,1,1.37-1.39,1.21,1.21,0,0,0,.53-1,1.44,1.44,0,0,1,.63-1.22l4.67-3.9c.24-.21.5-.38.53-.76s.29-.34.49-.24a.78.78,0,0,1,.46.29c.12.17-.08.45-.33.45a1.16,1.16,0,0,0-.8.35C26.91,3.57,25.3,5,23.67,6.32a1.11,1.11,0,0,0-.45.87,1.64,1.64,0,0,1-.71,1.38A16.94,16.94,0,0,0,21.11,10c-.11.11-.12.2,0,.3s.35.3.54.43a.28.28,0,0,0,.25,0c.06,0,.07-.15.1-.23a1.75,1.75,0,0,1,.23-.5,10.77,10.77,0,0,1,1.13-1A1.35,1.35,0,0,0,24,7.83,1,1,0,0,1,24.41,7C26,5.66,27.57,4.32,29.13,3a.72.72,0,0,0,.19-.39.46.46,0,0,1,.47-.42.5.5,0,0,1,.53.39c0,.22-.19.35-.51.4a1.05,1.05,0,0,0-.47.21l-4.79,4.1a1,1,0,0,0-.33.9,1.14,1.14,0,0,1-.48,1c-.4.32-.79.67-1.19,1a.56.56,0,0,0-.22.51,1.71,1.71,0,0,1-.19.51l.7.58c0-.72.51-1,.92-1.38.2-.18.39-.37.61-.54A1.45,1.45,0,0,0,25,8.69a1.47,1.47,0,0,1,.61-.94C26.9,6.63,28.2,5.52,29.48,4.4c.23-.2.48-.35.46-.73,0-.21.24-.32.47-.32a.48.48,0,0,1,.54.33.28.28,0,0,1-.14.38.23.23,0,0,1-.11,0,2.29,2.29,0,0,0-1.27.74C28.19,5.9,27,7,25.72,8a1.24,1.24,0,0,0-.45.85,1.42,1.42,0,0,1-.56,1c-.42.35-.84.72-1.24,1.09a.87.87,0,0,0,0,1.22l0,0a3,3,0,0,0,.41.46.53.53,0,0,0,.44.08.74.74,0,0,0,.52-.82,3.69,3.69,0,0,1,0-.47.77.77,0,0,1,.7-.82h.39c.38,0,.5-.12.56-.49A.53.53,0,0,1,27,9.65a.5.5,0,0,1,.27.08.41.41,0,0,1,.29.47.46.46,0,0,1-.4.37c-.26.07-.5.19-.75.26a1.8,1.8,0,0,1-.57.11c-.55,0-.81.28-.7.8a1,1,0,0,1-.44,1.19,3.08,3.08,0,0,0-.61.82v.31a.71.71,0,0,1,0,.29,4.77,4.77,0,0,1-.34.63l-.27-.3c-.21.19-.52.3-.36.69a.33.33,0,0,1-.12.29.66.66,0,0,0-.23.67h-.12V15.5c-.28.21-.53.3-.49.66a.49.49,0,0,1-.35.58l-.23-.3-.35.29c-.05.05-.11.14-.09.18.25.45-.1.6-.39.82l-.26-.33c-.15.19-.48.24-.4.57,0,.15,0,.43.31.36v.22l.06.06.49-.39v.1l.68,1a6,6,0,0,1-.83-.24.81.81,0,0,1-.59-.65l-.47.27-.22-.28c-.52.29-.55.36-.31,1l.2-.07-.05.33.54-.37v.2c.33-.14.19.21.3.32h-.16l.21.44v.06l-1.23-.8-.5.38-.25-.31-.48.42.21.55.24-.08-.08.37.54-.37v.17l.18-.1L20,23.76H20l-.12-.19c-.3-.67-.6-1.35-.93-2a1.4,1.4,0,0,0-.42-.42c-.2-.17-.42-.33-.66-.51l-.39.29L17,20.57l-.5.42.26.54.23-.1-.08.28.07.05.56-.42L19,24l-.06.05a.79.79,0,0,1-.15-.12l-1.05-1.43a1.56,1.56,0,0,0-.28-.23,6.12,6.12,0,0,0-.69-.43,1.11,1.11,0,0,0-.57-.12c-.5.11-.49.13-.57-.4h-.32c-.13,0-.36-.15-.36.11a.89.89,0,0,0,.25.48c.06.07.22.06.31.07l-.39.14Zm.25-12.42a1,1,0,0,0-.2-.15,3.42,3.42,0,0,0-4.62,1.43,2.4,2.4,0,0,0-.11.23A1.85,1.85,0,0,0,10.65,13c.2.28.28.28.55.06l2.74-2.26ZM14.5,16c.53-.24.54-.26.52-.77v-.64l2.11.91-.79.71a.57.57,0,0,1-.8.08.6.6,0,0,1-.08-.08L15.17,16A1.7,1.7,0,0,0,16,17.15a.43.43,0,0,0,.54-.08c.23-.24.48-.46.73-.69l1.61-1.53.54.52c-.12-.35-.23-.67-.33-1a1.71,1.71,0,0,0-.72-.91.83.83,0,0,0,.12.27c.16.23.18.43-.08.61a7.7,7.7,0,0,0-.6.54.39.39,0,0,1-.52.1l-2.85-1.27-.31-.12c.1.8.2,1.55.3,2.29A.77.77,0,0,0,14.5,16Zm.05-2.78.19-.25c-.11-.11-.21-.19-.29-.28a.43.43,0,0,1-.08-.6l.08-.08A2.16,2.16,0,0,1,15.87,12H16a1.11,1.11,0,0,0,.25,0c.22,0,.44-.08.67-.08s.26-.07.26-.26L17,11.62a3.32,3.32,0,0,1-1.33-.13c-.1-.05-.26,0-.39,0l-.21,0c-.74,0-1,.17-1.07.88a.84.84,0,0,0-.8.7,2.11,2.11,0,0,0,0,1,5.8,5.8,0,0,1,.25,1.37.8.8,0,0,0,.08.16c.45-.23,0-.65.2-.93.05-.06,0-.2,0-.31h0a.63.63,0,0,1-.16-.66.81.81,0,0,0,0-.38.51.51,0,0,1,.21-.57.41.41,0,0,1,.54,0Zm4.18,3.67c.31-.05.61-.17.67-.53a8.65,8.65,0,0,0,.05-.88c-.29,0-.41.25-.35.55a.57.57,0,0,1-.13.45.57.57,0,0,1-.48,0,1.23,1.23,0,0,1-.34-.26h-.08l-.14.21c.13.12.27.2.33.32a.6.6,0,0,1,.07.47c-.06.11-.27.16-.42.21a2.37,2.37,0,0,1-.36.09c-.08,0-.18.09-.23.06a1.09,1.09,0,0,0-.83.08,1.24,1.24,0,0,1-.6-.09c-.19-.06-.3-.06-.33.16a1.27,1.27,0,0,0,1,.21l1.26-.2C18.51,17.68,18.62,17.59,18.73,16.93ZM18,13c-.34-.36-.68-.5-1-.34a6.78,6.78,0,0,0-.9.61.64.64,0,0,0-.1.9.47.47,0,0,0,.1.1,10.1,10.1,0,0,0,1,.44c-.08-.12-.1-.17-.14-.22-.49-.66-.49-.66.19-1.15.08-.06.23-.17.29-.14C17.67,13.3,17.8,13.15,18,13Zm1,.66c.57.32.31,1,.61,1.48a1.39,1.39,0,0,0-.41-1.72ZM14,20.38h-.11a.55.55,0,0,0,.19.75.53.53,0,0,0,.24.08ZM13,20.15l.08-.06a.86.86,0,0,0-.48-.74l-.09.06Zm-1.14-1.23.16-.1-.47-.67-.15.1Zm-3,3.42H9l0-.51-.29.07Zm7.57-13c-.11.15-.22.23-.22.3a.32.32,0,0,0,.21.2s.19-.11.19-.17a.91.91,0,0,0-.16-.33ZM12,13.5c-.15-.11-.23-.2-.31-.2s-.2.12-.19.17a.31.31,0,0,0,.18.22S11.79,13.6,12,13.5ZM10,24.93,9.84,25c0,.09-.14.17-.15.25s.1.15.16.22.23-.15.28-.25S10.06,25,10,24.93ZM20.32,14.87c-.09.17-.17.26-.17.34s.14.19.18.18.2-.12.21-.2S20.44,15,20.32,14.87Zm-9.15.71c-.09.15-.2.24-.19.32a.33.33,0,0,0,.23.17s.17-.12.17-.19S11.28,15.72,11.17,15.58Zm7.84-5c-.15-.1-.23-.2-.31-.2s-.19.13-.18.18a.3.3,0,0,0,.2.21c.05,0,.14-.09.28-.19Zm.92,1.36c.11-.13.22-.22.21-.27a.3.3,0,0,0-.2-.21c-.05,0-.19.1-.19.17S19.84,11.8,19.93,11.94Zm-9.49,5c0,.45.1.61.47.69ZM8,23.76c-.2-.21-.35-.26-.49-.12s0,.19.07.28Zm8.51-4.23c.12-.17.22-.24.22-.33a.2.2,0,0,0-.17-.18.24.24,0,0,0-.2.15c0,.08,0,.18.12.36Zm-2.41-.82c.11-.13.22-.21.22-.27a.38.38,0,0,0-.19-.22s-.18.1-.19.17.06.17.13.32ZM5.41,23.46c.1-.13.2-.21.2-.28S5.51,23,5.45,23s-.15.19-.17.19A1.14,1.14,0,0,0,5.41,23.46ZM.81,25.15.89,25c-.09,0-.19-.11-.26-.09a.5.5,0,0,0-.19.24s.1.16.14.15A1.14,1.14,0,0,0,.81,25.15ZM27,9.89l-.18.07a.75.75,0,0,0,.09.29h.22Z"/><path d="M15.12,22.06a2.35,2.35,0,0,0,.45.14c.27,0,.33.13.24.36l-.11.3a.58.58,0,0,0,.18.8h0a.77.77,0,0,1,.18.5v.75a1,1,0,0,1-.42,1,1.67,1.67,0,0,0-.28.46l.08.08-.69.18c.12-.27.22-.51.35-.74a.92.92,0,0,1,.27-.25.66.66,0,0,0,.35-.68,4.69,4.69,0,0,1,0-.53.62.62,0,0,0-.28-.67.42.42,0,0,1-.16-.25,9.82,9.82,0,0,1-.2-1,3.38,3.38,0,0,1,0-.45Z"/><path d="M23.27,16.15l.45-.47L25,16.94c-.21.15-.37,0-.56-.11l-.91-.56Z"/><path d="M21.5,17.33l-.16.28.07.08.47-.32.83,1.34h0a2.55,2.55,0,0,0-.3-.26c-.24-.16-.5-.29-.74-.45a1,1,0,0,1-.34-.35,1.88,1.88,0,0,1,.12-.39Z"/><path d="M22.77,16.34l.51,1-.11.08c-.26-.25-.71-.19-.89-.61.24-.11.53-.18.5-.53Z"/></g></svg>