<!-- The SVG Design by Ala GARBAA - AlaGarbaa.com --><svg xmlns="http://www.w3.org/2000/svg" xmlns:xlink="http://www.w3.org/1999/xlink" viewBox="0 0 32.82 33.13"><defs><linearGradient id="a" x1="399.49" y1="859.05" x2="431.63" y2="886.7" gradientTransform="translate(-224.59 -488.93) scale(0.56 0.57)" gradientUnits="userSpaceOnUse"><stop offset="0" stop-color="#5a9fd4"/><stop offset="1" stop-color="#306998"/></linearGradient><linearGradient id="b" x1="444.29" y1="903.67" x2="432.81" y2="887.43" gradientTransform="translate(-224.59 -488.93) scale(0.56 0.57)" gradientUnits="userSpaceOnUse"><stop offset="0" stop-color="#ffd43b"/><stop offset="1" stop-color="#ffe873"/></linearGradient></defs><path d="M16.18,0a22.75,22.75,0,0,0-3.77.32c-3.35.59-4,1.83-4,4.11v3h7.91v1H5.49a4.94,4.94,0,0,0-4.94,4,14.89,14.89,0,0,0,0,8c.56,2.34,1.9,4,4.2,4H7.47V20.89A5,5,0,0,1,12.41,16H20.3a4,4,0,0,0,4-4V4.43a4.41,4.41,0,0,0-4-4.11A24.7,24.7,0,0,0,16.18,0ZM11.91,2.42A1.51,1.51,0,1,1,10.42,4v0a1.51,1.51,0,0,1,1.49-1.51Z" fill="url(#a)"/><path d="M25.24,8.45V12a5.06,5.06,0,0,1-4.94,5H12.41a4,4,0,0,0-4,4v7.53c0,2.14,1.87,3.4,4,4a13.27,13.27,0,0,0,7.89,0c2-.58,4-1.74,4-4v-3H16.4v-1H28.21c2.3,0,3.15-1.6,4-4a13.47,13.47,0,0,0,0-8c-.57-2.29-1.65-4-4-4ZM20.8,27.51a1.51,1.51,0,1,1-1.48,1.54V29A1.5,1.5,0,0,1,20.8,27.51Z" fill="url(#b)"/></svg>